<svg width="200" height="200" viewBox="50 50 400 400" fill="none" xmlns="http://www.w3.org/2000/svg">
<rect width="200" height="200" fill="#FFFFFF00"/>
<rect width="200" height="200" fill="#FFFFFF00"/>
<path d="M242.188 125C268.066 125 289.062 144.761 289.062 169.118C289.062 193.474 268.066 213.235 242.188 213.235C216.309 213.235 195.312 193.474 195.312 169.118C195.312 144.761 216.309 125 242.188 125ZM125 279.412C125 247.197 147.949 219.026 182.178 203.631C194.531 222.61 216.797 235.294 242.188 235.294C269.385 235.294 293.018 220.726 304.688 199.449C312.402 194.256 321.826 191.176 332.031 191.176H341.553C346.631 191.176 350.342 195.68 349.121 200.322L340.771 231.71C345.605 237.408 349.658 243.52 352.686 250H363.281C369.775 250 375 254.917 375 261.029V312.5C375 318.612 369.775 323.529 363.281 323.529H343.75C335.693 333.64 324.951 341.728 312.5 346.829V360.294C312.5 368.428 305.518 375 296.875 375H280.762C273.779 375 267.676 370.634 265.723 364.338L262.256 352.941H222.07L218.604 364.338C216.699 370.634 210.596 375 203.613 375H187.5C178.857 375 171.875 368.428 171.875 360.294V346.829C144.287 335.478 125 309.559 125 279.412ZM308.594 286.765C315.088 286.765 320.312 281.847 320.312 275.735C320.312 269.623 315.088 264.706 308.594 264.706C302.1 264.706 296.875 269.623 296.875 275.735C296.875 281.847 302.1 286.765 308.594 286.765Z" fill="#5b6ef5"/>
</svg>
